<svg width="200" height="200" viewBox="-100 -100 200 200" xmlns="http://www.w3.org/2000/svg">
  <polygon points="0,-100 -75.82336708355388,-31.811721782487044 -45.29529253162992,46.02651435912538 20.489640497558522,42.508579899236175 29.911110106804138,-6.049601673586813 -4.8627542457973405,-16.12015933873329 -9.207352238449213,14.09718343210073 26.995130233116356,14.231483827328509 31.635716992004458,-35.014084925508705 -30.493347349016975,-56.92327570536414 -81.71438566777098,9.161212452099688 -28.173255684142983,95.94929736144974 61.83405608353022,65.48607339452849 79.54684610794114,-16.543174270799852 26.99513023311635,-68.84595895618314 -38.22600634235672,-57.026538384890245 -65.79728666730493,-2.5191205498563187 -41.184235155258605,51.37594452465635 18.06507154212475,66.23372880358747 69.70835497455326,24.682957027897608 64.59460293890426,-49.28401984253945 -8.998376744372115,-89.61531965206105 -90.96319953545185,-41.54150130018861 -68.70450675947805,50.441884904116804 6.512082007853007,70.95097033206096 51.37566192713352,28.210008254746676 44.64923590504456,-18.643662139638895 15.502384587918867,-39.4177000510969 -15.502384587918893,-39.417700051096915 -44.64923590504461,-18.643662139638874 -51.37566192713352,28.2100082547467 -6.5120820078530155,70.95097033206093 68.70450675947802,50.441884904116804 90.96319953545184,-41.54150130018864 -2.5612050621948175,-82.18642751259547 -60.683534631655924,-22.081942264785496 -30.155460079731945,36.29673484142381 17.928435435363706,24.69500741183165 12.643351586481849,-11.11987304881564 -16.648121444068757,-2.519120549856335 -1.7312306539307736,30.467606217970527 44.99188372186059,14.231483827328507 39.11183857652289,-51.384507711378504 -42.2787145472884,-70.52431449424111 -98.98214418809327,14.231483827328523 -33.88143239789834,83.45013384675534 48.09315473163463,65.4860733945285 73.83866939418579,-4.044010756105454 35.993506977488465,-58.461278608244186 -25.041708044082934,-60.89779765606566 -63.84175251368074,-16.12015933873327 -52.74381696182554,43.94705238519078 6.505489735557815,73.66262094305304 71.66388912817744,38.28399581677456 77.77890123717805,-45.412760571364046 0,-100 -74.42443598355152,-41.54150130018861 -61.83405608353024,35.397696413705134 -4.31850483029198,58.45180681736656 35.5068345068136,32.86951639721941 42.29552444491576,-2.2732393537690854 29.415677854614596,-30.476169404692666 -1.5890913212231628,-48.359230697501154 -47.00294736517341,-35.01408492550868 -67.24448934745342,23.550500112273973 -17.342668845998,83.45013384675534 75.57495743542583,65.4860733945285 73.69544101512955,-36.47122992495981 -5.122410124389632,-64.37285502519097 -45.54370217975794,-12.352162747083945 -15.015627627833961,26.566955323722258 15.367230373168889,6.881434924427121 -4.624406933840425,-16.190144424044465 -28.433488642340176,11.081918239020633 5.744890930587662,46.83802900384034 62.9886372106048,14.231483827328503 46.58796016104132,-67.75493049724831 -54.064081745559825,-84.12535328311807 -89.98376744372115,3.8468034793895627 -39.58960911165369,70.95097033206096 34.352253379739004,65.4860733945285 68.13049268043044,8.455152758588952 44.99188372186059,-48.076598260305225 -11.85740974580916,-64.76905692724107 -61.88621836005657,-29.721198127610236 -64.30339876839247,36.51816024572522 -5.054092071009117,81.0915130825186 73.61942328180163,51.885034605651526 90.96319953545184,-41.54150130018864 6.870450675947805,-84.9558115095883 -57.885672431651194,-41.541501300188614 -54.96360540758244,20.353507923293453 -15.149091668436968,45.95264330267216 19.638007086493676,37.52902453969214 39.941812984786964,14.097183432100707 43.32897112131033,-21.53463875828844 12.324201945472568,-57.30076134390539 -49.356658825302205,-51.38450771137846 -83.11331676777336,18.890991969801245 -28.173255684142983,95.94929736144974 63.7895902371544,51.885034605651526 56.427682494807286,-31.40095854973098 -7.68361518658445,-46.55928253778644 -30.403869727859973,-2.6223832293823857 0.12420482406401145,16.8371758060207 12.806025310974075,-10.93213756297739 -21.892165454162715,-21.260415799273293 -40.2188558406116,24.6829570278976 13.221012515106095,63.20845178971013 80.98539069934904,14.231483827328503 54.064081745559754,-84.12535328311812 -40.87978344728603,-80.25409401194267 -80.98539069934904,-6.537876868549384 -45.297785825409036,58.45180681736656 20.6113520278434,65.4860733945285 62.42231596667507,20.954316273283354 53.9902604662327,-37.69191791236627 1.3268885524646223,-68.64031619841647 -59.930684206432375,-43.3222369164872 -75.86298057495941,29.089268106259652 -16.61367387757605,88.52040522198416 75.57495743542583,65.4860733945285 80.13261269730685,-29.042337785494244 13.740901351895602,-69.91162301917664 -41.346908879750856,-41.54150130018862 -48.09315473163463,5.3093194328817646 -25.979678506581962,33.453479787977756 3.7691796661737555,42.18853268216486 37.588101524658164,30.467606217970516 57.24226438800607,-12.593108111884199 26.237495212168295,-66.24229199030964 -51.71037028543102,-67.75493049724827 -98.98214418809327,14.231483827328523 -20.697134099624552,79.57887457557993 52.00422303888299,38.283995816774585 39.159923974485,-26.33068717450215 -10.244820248779266,-28.745710050381913 -15.26403727596199,7.1073962883191735 15.264037275961972,7.107396288319146 10.244820248779261,-28.745710050381913 -39.159923974485,-26.330687174502128 -52.004223038883005,38.28399581677455 20.69713409962453,79.57887457557993 98.98214418809329,14.2314838273285 56.01961589918395,-70.52431449424115 -27.695485149012256,-76.38283474076727 -71.98701395497692,-16.922557216488343 -51.005962539164386,45.95264330267216 6.870450675947787,65.4860733945285 56.71413925291973,33.45347978797774 62.988637210604814,-27.30723756442732 14.511186850738408,-72.51157546959189 -57.97515005280819,-56.92327570536414 -87.42256238152633,21.66037596679409 -28.173255684142983,95.94929736144974 59.706130015105906,60.826565252055765 69.30202585916187,-16.543174270799852 20.611352027843406,-54.86743452876496 -24.80814532785051,-41.54150130018862 -41.222704055686826,-9.734869057529922 -36.810265344726936,20.954316273283368 -12.099647754146165,46.84804082463758 35.234390064529364,46.838029003840326 71.1555576547018,-3.65157746547997 40.15078847886402,-75.18382263671388 -54.064081745559825,-84.12535328311807 -80.98539069934904,14.23148382732852 -13.221012515106128,63.20845178971013 40.21885584061155,24.68295702789762 21.89216545416271,-21.260415799273307 -12.806025310974084,-10.932137562977385 -0.12420482406403366,16.837175806020724 30.40386972785995,-2.6223832293824105 7.683615186584444,-46.55928253778644 -56.427682494807286,-31.400958549730944 -63.789590237154435,51.885034605651526 28.173255684142966,95.94929736144974 87.42256238152635,21.66037596679407 57.97515005280813,-56.923275705364205 -14.511186850738463,-72.51157546959188 -62.9886372106048,-27.307237564427307 -56.71413925291975,33.453479787977756 -6.870450675947815,65.48607339452849 51.00596253916437,45.95264330267214 71.98701395497693,-16.92255721648836 27.69548514901219,-76.38283474076731 -56.019615899184004,-70.52431449424111 -98.98214418809327,14.231483827328523 -30.526967144271786,79.57887457557993 43.83730259478601,56.167057109583055 58.47143902101689,-4.044010756105454 27.481802703791207,-39.82324603835327 -8.269381775950169,-41.54150130018862 -34.352253379739025,-24.77905754794159 -47.64085218287192,8.455152758588975 -27.96847517446609,51.50754896711032 32.880678604400565,63.20845178971012 85.06885092139754,5.2899531809242655 54.064081745559754,-84.12535328311812 -46.58796016104139,-67.75493049724827 -62.988637210604814,14.23148382732852 -5.744890930587693,46.838029003840326 28.433488642340137,11.081918239020649 4.6244069338404135,-16.190144424044476 -15.3672303731689,6.8814349244271265 15.015627627833943,26.566955323722276 45.54370217975793,-12.352162747083975 5.1224101243896305,-64.37285502519094 -73.69544101512957,-36.47122992495977 -75.57495743542584,65.48607339452849 16.613673877576034,88.52040522198416 75.86298057495941,29.08926810625963 59.93068420643232,-43.32223691648722 -1.3268885524646723,-68.64031619841646 -53.990260466232684,-37.69191791236627 -62.42231596667509,20.954316273283368 -20.61135202784342,65.4860733945285 45.29778582540902,58.451806817366545 80.98539069934904,-6.53787686854941 40.87978344728597,-80.25409401194271 -54.064081745559825,-84.12535328311807 -85.06885092139753,5.28995318092428 -32.88067860440059,63.20845178971014 27.96847517446607,51.50754896711033 47.6408521828719,8.455152758588952 34.35225337973902,-24.779057547941584 8.269381775950151,-41.54150130018862 -27.48180270379122,-39.823246038353275 -58.471439021016906,-4.044010756105426 -43.837302594785996,56.16705710958303 30.526967144271765,79.57887457557993 98.98214418809329,14.2314838273285 42.27871454728833,-70.52431449424115 -39.11183857652295,-51.38450771137848 -44.99188372186057,14.231483827328518 1.7312306539307403,30.467606217970516 16.648121444068707,-2.519120549856313 -12.643351586481854,-11.119873048815645 -17.928435435363717,24.69500741183165 30.15546007973191,36.29673484142384 60.68353463165589,-22.081942264785525 2.5612050621948153,-82.18642751259547 -90.96319953545185,-41.54150130018861 -73.61942328180166,51.885034605651526 5.054092071009114,81.0915130825186 64.30339876839248,36.5181602457252 61.8862183600565,-29.721198127610254 11.857409745809116,-64.76905692724107 -44.991883721860574,-48.07659826030522 -68.13049268043045,8.455152758588975 -34.35225337973903,65.4860733945285 39.589609111653665,70.95097033206093 89.98376744372116,3.8468034793895463 54.064081745559754,-84.12535328311812 -40.15078847886409,-75.18382263671384 -71.15555765470182,-3.6515774654799533 -35.2343900645294,46.83802900384034 12.099647754146158,46.8480408246376 36.810265344726915,20.954316273283354 41.22270405568681,-9.73486905752991 24.808145327850497,-41.541501300188635 -20.611352027843413,-54.86743452876496 -69.30202585916189,-16.54317427079981 -59.70613001510593,60.826565252055765 28.173255684142966,95.94929736144974 81.714385667771,9.161212452099672 30.49334734901693,-56.923275705364205 -31.635716992004514,-35.01408492550868 -26.99513023311634,14.231483827328514 9.207352238449173,14.097183432100701 4.862754245797291,-16.12015933873327 -29.911110106804134,-6.049601673586811 -20.489640497558533,42.508579899236175 45.29529253162988,46.026514359125386 75.82336708355386,-31.811721782487083 0,-100 -77.77890123717806,-45.41276057136401 -71.66388912817749,38.28399581677458 -6.505489735557821,73.66262094305304 52.74381696182555,43.947052385190766 63.841752513680696,-16.120159338733288 25.041708044082895,-60.897797656065656 -35.99350697748846,-58.46127860824417 -73.8386693941858,-4.044010756105426 -48.09315473163463,65.48607339452849 33.88143239789832,83.45013384675534 98.98214418809329,14.2314838273285 51.71037028543096,-67.75493049724831 -26.237495212168355,-66.24229199030961 -57.24226438800608,-12.593108111884193 -37.5881015246582,30.467606217970527 -3.769179666173772,42.18853268216487 25.979678506581934,33.45347978797774 48.09315473163462,5.309319432881771 41.346908879750835,-41.541501300188635 -13.74090135189561,-69.91162301917663 -80.13261269730687,-29.04233778549421 -75.57495743542584,65.48607339452849 25.61205062194815,78.13572487404521 64.44662714744871,4.090941076870848 18.7079801507455,-43.32223691648722 -24.15959540748608,-18.643662139638874 -8.9983767443721,14.231483827328512 16.6834738229676,-2.2732393537690907 -6.922612952474133,-29.721198127610233 -47.17886862712643,-0.9793302983579764 -23.05084555975335,60.322152386640695 60.43512498352786,55.75629387682694 90.96319953545184,-41.54150130018864 8.99837674437212,-89.61531965206105 -64.59460293890429,-49.28401984253942 -69.7083549745533,24.68295702789761 -18.065071542124752,66.23372880358748 41.18423515525861,51.37594452465633 65.79728666730487,-2.5191205498563294 38.22600634235669,-57.02653838489026 -26.995130233116342,-68.84595895618313 -79.54684610794115,-16.54317427079981 -61.83405608353024,65.48607339452849 28.173255684142966,95.94929736144974 83.11331676777336,18.89099196980123 49.356658825302155,-51.384507711378525 -12.324201945472613,-57.30076134390538 -43.328971121310346,-21.534638758288438 -39.941812984787006,14.097183432100724 -19.638007086493676,37.529024539692145 15.149091668436954,45.95264330267214 54.96360540758241,20.353507923293456 57.88567243165116,-41.541501300188635 -6.870450675947805,-84.95581150958832 -90.96319953545185,-41.54150130018861 -60.43512498352788,55.75629387682694 23.050845559753338,60.3221523866407 47.17886862712643,-0.9793302983579819 6.922612952474077,-29.72119812761026 -16.683473822967642,-2.273239353769063 8.998376744372122,14.231483827328512 24.15959540748603,-18.643662139638895 -18.707980150745556,-43.3222369164872 -64.4466271474487,4.0909410768708545 -25.612050621948168,78.13572487404521 75.57495743542583,65.4860733945285 85.25502282169649,-29.042337785494244 17.996753488744226,-79.23063930412209 -51.410304640630514,-53.15527911371484 -67.7528208209291,11.081918239020643 -29.624653348691695,58.80483666412191 29.62465334869168,58.80483666412189 67.75282082092907,11.081918239020638 51.41030464063048,-53.15527911371485 -17.99675348874423,-79.23063930412209 -85.2550228216965,-29.04233778549421 -75.57495743542584,65.48607339452849 17.34266884599798,83.45013384675534 67.24448934745344,23.55050011227395 47.002947365173355,-35.014084925508705 1.589091321223124,-48.35923069750115 -29.415677854614614,-30.476169404692687 -42.295524444915806,-2.2732393537690685 -35.5068345068136,32.86951639721942 4.318504830291964,58.451806817366545 61.83405608353022,35.397696413705134 74.42443598355149,-41.54150130018864" fill="none" stroke="black" stroke-width="0.1" />
</svg>