<svg width="200" height="200" viewBox="-100 -100 200 200" xmlns="http://www.w3.org/2000/svg">
  <polygon points="0,-100 49.103236967912586,50.119031140903616 18.782170456095308,30.63286490763315 -54.064081745559825,-84.12535328311807 0.7608098742420383,35.92441381326047 17.389256894252785,48.40121020546184 -54.064081745559825,-84.12535328311807 30.321066511817275,-41.541501300188635 25.191652478475262,65.4860733945285 -75.57495743542584,65.48607339452849 5.721654651889224,-69.93073595547497 10.851068685231219,-34.25487772390258 -28.173255684142983,95.94929736144974 26.651635935658845,-24.100469734928847 25.19165247847528,-44.837975535157156 -28.173255684142983,95.94929736144974 -51.25104779558692,4.288764920357502 32.994048062697765,-61.92283872422383 98.98214418809329,14.2314838273285 -56.597010897347864,41.47075500536893 -32.99404806269775,14.231483827328518 90.96319953545184,-41.54150130018864 -35.66702961357825,-4.359511215177196 -50.38330495695056,10.324048929685652 90.96319953545184,-41.54150130018864 36.80353103794857,35.92441381326046 -68.40466553880383,15.615597835312961 -54.064081745559825,-84.12535328311807 68.40466553880381,15.615597835312967 32.36194437509727,15.615597835312967 -90.96319953545185,-41.54150130018861 20.062238445133275,29.810215162956137 40.796443646920224,31.316347016395163 -90.96319953545185,-41.54150130018861 3.0486731010087533,-51.33974091296925 56.59701089734786,41.470755005368915 -28.173255684142983,95.94929736144974 -32.99404806269776,-61.92283872422384 -9.391085228047661,-34.68356754618341 28.173255684142966,95.94929736144974 9.391085228047654,-34.68356754618343 -3.048673101008786,-51.33974091296921 28.173255684142966,95.94929736144974 -40.79644364692025,31.31634701639518 -5.721654651889269,-69.93073595547493 90.96319953545184,-41.54150130018864 -25.191652478475294,65.4860733945285 -20.06223844513328,29.810215162956112 54.064081745559754,-84.12535328311812 -32.361944375097316,15.615597835312956 -36.8035310379486,35.92441381326046 54.064081745559754,-84.12535328311812 50.38330495695056,10.324048929685675 -49.10323696791261,50.119031140903616 -90.96319953545185,-41.54150130018861 65.98809612539553,-23.845677448447663 35.66702961357822,-4.359511215177204 -98.98214418809327,14.231483827328523 32.994048062697765,14.231483827328509 51.25104779558689,4.28876492035749 -98.98214418809327,14.231483827328523 -25.19165247847528,-44.837975535157184 70.0332182516822,4.28876492035749 28.173255684142966,95.94929736144974 -61.23437364218183,-34.25487772390257 -26.65163593565889,-24.100469734928797 75.57495743542583,65.4860733945285 -10.85106868523128,-34.25487772390256 -30.32106651181729,-41.54150130018862 75.57495743542583,65.4860733945285 -17.389256894252814,48.40121020546183 -42.62077244178132,-55.736118627831786 54.064081745559754,-84.12535328311812 14.211877606602433,68.71002618340934 -0.760809874242066,35.92441381326044 0,-100 -18.782170456095322,30.632864907633166 -11.538896055721981,50.119031140903616 0,-100 47.96673554354225,-18.554128542820354 -14.211877606602453,68.71002618340934 -98.98214418809327,14.231483827328523 42.620772441781284,-55.736118627831786 27.648084960936785,-22.950506257682918 -75.57495743542584,65.48607339452849 35.45048054515928,-5.8656430686162695 45.43380639175416,-24.10046973492883 -75.57495743542584,65.48607339452849 -45.43380639175422,-24.100469734928815 61.23437364218178,-34.254877723902574 75.57495743542583,65.4860733945285 -70.03321825168224,4.288764920357502 -35.450480545159294,-5.865643068616233 98.98214418809329,14.2314838273285 -27.648084960936824,-22.95050625768291 -47.96673554354226,-18.554128542820365 98.98214418809329,14.2314838273285 11.53889605572195,50.119031140903616 -65.98809612539551,-23.845677448447656 0,-100 49.103236967912586,50.119031140903616 18.782170456095308,30.63286490763315 -54.064081745559825,-84.12535328311807 0.7608098742420383,35.92441381326047 17.389256894252785,48.40121020546184 -54.064081745559825,-84.12535328311807 30.321066511817275,-41.541501300188635 25.191652478475262,65.4860733945285 -75.57495743542584,65.48607339452849 5.721654651889224,-69.93073595547497 10.851068685231219,-34.25487772390258 -28.173255684142983,95.94929736144974 26.651635935658845,-24.100469734928847 25.19165247847528,-44.837975535157156 -28.173255684142983,95.94929736144974 -51.25104779558692,4.288764920357502 32.994048062697765,-61.92283872422383 98.98214418809329,14.2314838273285 -56.597010897347864,41.47075500536893 -32.99404806269775,14.231483827328518 90.96319953545184,-41.54150130018864 -35.66702961357825,-4.359511215177196 -50.38330495695056,10.324048929685652 90.96319953545184,-41.54150130018864 36.80353103794857,35.92441381326046 -68.40466553880383,15.615597835312961 -54.064081745559825,-84.12535328311807 68.40466553880381,15.615597835312967 32.36194437509727,15.615597835312967 -90.96319953545185,-41.54150130018861 20.062238445133275,29.810215162956137 40.796443646920224,31.316347016395163 -90.96319953545185,-41.54150130018861 3.0486731010087533,-51.33974091296925 56.59701089734786,41.470755005368915 -28.173255684142983,95.94929736144974 -32.99404806269776,-61.92283872422384 -9.391085228047661,-34.68356754618341 28.173255684142966,95.94929736144974 9.391085228047654,-34.68356754618343 -3.048673101008786,-51.33974091296921 28.173255684142966,95.94929736144974 -40.79644364692025,31.31634701639518 -5.721654651889269,-69.93073595547493 90.96319953545184,-41.54150130018864 -25.191652478475294,65.4860733945285 -20.06223844513328,29.810215162956112 54.064081745559754,-84.12535328311812 -32.361944375097316,15.615597835312956 -36.8035310379486,35.92441381326046 54.064081745559754,-84.12535328311812 50.38330495695056,10.324048929685675 -49.10323696791261,50.119031140903616 -90.96319953545185,-41.54150130018861 65.98809612539553,-23.845677448447663 35.66702961357822,-4.359511215177204 -98.98214418809327,14.231483827328523 32.994048062697765,14.231483827328509 51.25104779558689,4.28876492035749 -98.98214418809327,14.231483827328523 -25.19165247847528,-44.837975535157184 70.0332182516822,4.28876492035749 28.173255684142966,95.94929736144974 -61.23437364218183,-34.25487772390257 -26.65163593565889,-24.100469734928797 75.57495743542583,65.4860733945285 -10.85106868523128,-34.25487772390256 -30.32106651181729,-41.54150130018862 75.57495743542583,65.4860733945285 -17.389256894252814,48.40121020546183 -42.62077244178132,-55.736118627831786 54.064081745559754,-84.12535328311812 14.211877606602433,68.71002618340934 -0.760809874242066,35.92441381326044 0,-100 -18.782170456095322,30.632864907633166 -11.538896055721981,50.119031140903616 0,-100 47.96673554354225,-18.554128542820354 -14.211877606602453,68.71002618340934 -98.98214418809327,14.231483827328523 42.620772441781284,-55.736118627831786 27.648084960936785,-22.950506257682918 -75.57495743542584,65.48607339452849 35.45048054515928,-5.8656430686162695 45.43380639175416,-24.10046973492883 -75.57495743542584,65.48607339452849 -45.43380639175422,-24.100469734928815 61.23437364218178,-34.254877723902574 75.57495743542583,65.4860733945285 -70.03321825168224,4.288764920357502 -35.450480545159294,-5.865643068616233 98.98214418809329,14.2314838273285 -27.648084960936824,-22.95050625768291 -47.96673554354226,-18.554128542820365 98.98214418809329,14.2314838273285 11.53889605572195,50.119031140903616 -65.98809612539551,-23.845677448447656" fill="none" stroke="silver" stroke-width="0.5" />
</svg>